<?xml version="1.0" encoding="UTF-8" standalone="no"?>
<!-- Created with Inkscape (http://www.inkscape.org/) -->

<svg
   xmlns:dc="http://purl.org/dc/elements/1.1/"
   xmlns:cc="http://creativecommons.org/ns#"
   xmlns:rdf="http://www.w3.org/1999/02/22-rdf-syntax-ns#"
   xmlns:svg="http://www.w3.org/2000/svg"
   xmlns="http://www.w3.org/2000/svg"
   xmlns:xlink="http://www.w3.org/1999/xlink"
   xmlns:sodipodi="http://sodipodi.sourceforge.net/DTD/sodipodi-0.dtd"
   xmlns:inkscape="http://www.inkscape.org/namespaces/inkscape"
   id="svg2"
   xml:space="preserve"
   height="596.38464"
   width="1000"
   version="1.1"
   inkscape:version="0.48.1 r9760"
   sodipodi:docname="logo-iut-lille1.svg"><sodipodi:namedview
     pagecolor="#ffffff"
     bordercolor="#666666"
     borderopacity="1"
     objecttolerance="10"
     gridtolerance="10"
     guidetolerance="10"
     inkscape:pageopacity="0"
     inkscape:pageshadow="2"
     inkscape:window-width="1672"
     inkscape:window-height="1023"
     id="namedview40"
     showgrid="false"
     fit-margin-top="0"
     fit-margin-left="0"
     fit-margin-right="0"
     fit-margin-bottom="0"
     inkscape:zoom="1.3514768"
     inkscape:cx="500"
     inkscape:cy="298.19232"
     inkscape:window-x="0"
     inkscape:window-y="19"
     inkscape:window-maximized="0"
     inkscape:current-layer="svg2" /><metadata
     id="metadata8"><rdf:RDF><cc:Work
         rdf:about=""><dc:format>image/svg+xml</dc:format><dc:type
           rdf:resource="http://purl.org/dc/dcmitype/StillImage" /><dc:title /></cc:Work></rdf:RDF></metadata><defs
     id="defs6"><clipPath
       id="clipPath16"
       clipPathUnits="userSpaceOnUse"><path
         id="path18"
         d="m 0,215.43 235.28,0 V 0 H 0 v 215.43 z"
         inkscape:connector-curvature="0" /></clipPath><radialGradient
       id="radialGradient76"
       gradientUnits="userSpaceOnUse"
       cy="0"
       cx="0"
       gradientTransform="matrix(24.751114,0,0,-26.849945,39.780273,159.1377)"
       r="1"><stop
         id="stop78"
         stop-color="#35b3eb"
         offset="0" /><stop
         id="stop80"
         stop-color="#3c76c4"
         offset="1" /></radialGradient><radialGradient
       inkscape:collect="always"
       xlink:href="#radialGradient76"
       id="radialGradient3049"
       gradientUnits="userSpaceOnUse"
       gradientTransform="matrix(24.751114,0,0,-26.849945,39.780273,159.1377)"
       cx="0"
       cy="0"
       r="1" /></defs><g
     id="g3017"
     transform="matrix(5.888939,0,0,5.888939,0,-0.01472235)"><g
       transform="matrix(1.25,0,0,-1.25,-42.73875,197.89125)"
       id="g10"><g
         id="g12"><g
           clip-path="url(#clipPath16)"
           id="g14"><g
             transform="translate(39.479,122.6616)"
             id="g20"><path
               d="m 0,0 0,2.674 c 5.264,0.687 9.689,2 13.271,3.941 l 0.896,-0.752 c -0.218,-6.66 -0.326,-11.76 -0.326,-15.295 v -8.539 c 0.135,-8.134 0.218,-12.528 0.244,-13.185 0.027,-1.564 0.177,-2.705 0.448,-3.425 0.135,-0.282 0.312,-0.525 0.531,-0.727 0.216,-0.202 0.541,-0.368 0.977,-0.493 0.162,-0.031 1.667,-0.077 4.519,-0.141 v -2.675 c -4.127,0.219 -7.425,0.33 -9.894,0.33 -2.172,0 -5.728,-0.111 -10.666,-0.33 v 2.675 l 3.891,0.047 c 0.573,0.03 1.016,0.149 1.331,0.353 0.315,0.204 0.554,0.46 0.717,0.774 0.3,0.625 0.493,1.735 0.574,3.33 0,0.407 0.068,4.895 0.203,13.467 v 8.258 c 0,4.661 -0.135,7.429 -0.406,8.304 C 6.147,-0.938 5.854,-0.587 5.434,-0.352 5.013,-0.119 3.202,0 0,0"
               id="path22"
               inkscape:connector-curvature="0"
               style="fill:#231f20;fill-rule:nonzero" /></g><g
             transform="translate(103.2358,86.7197)"
             id="g24"><path
               d="m 0,0 0,-2.675 c -3.555,0.219 -6.243,0.33 -8.061,0.33 -2.009,0 -4.044,-0.111 -6.107,-0.33 0.164,2.536 0.286,5.379 0.366,8.541 -1.628,-1.502 -3.569,-3.552 -5.821,-6.147 -0.514,-0.594 -1.018,-1.032 -1.505,-1.314 -1.166,-0.75 -2.334,-1.29 -3.499,-1.62 -1.165,-0.326 -2.563,-0.491 -4.189,-0.491 -2.197,0 -4.035,0.345 -5.513,1.031 -1.478,0.689 -2.746,1.737 -3.803,3.146 -0.793,1.031 -1.399,2.368 -1.822,4.01 -0.425,1.642 -0.636,3.621 -0.636,5.936 0,1.094 0.034,2.126 0.102,3.098 0.067,0.967 0.1,1.922 0.1,2.86 v 8.024 c 0,0.812 -0.038,2.861 -0.121,6.146 -0.054,2.065 -0.177,3.409 -0.366,4.035 -0.108,0.313 -0.285,0.565 -0.53,0.75 -0.406,0.313 -1.125,0.471 -2.158,0.471 -1.493,0 -2.673,0.013 -3.541,0.047 v 2.674 c 5.835,0.75 10.07,1.955 12.703,3.611 0.433,0.282 0.773,0.424 1.017,0.424 0.19,0 0.346,-0.079 0.468,-0.234 0.123,-0.158 0.183,-0.393 0.183,-0.705 0,-0.25 -0.013,-0.563 -0.039,-0.939 -0.11,-1.001 -0.205,-2.924 -0.287,-5.77 -0.163,-5.224 -0.243,-8.727 -0.243,-10.51 v -9.15 c 0,-3.815 0.223,-6.498 0.671,-8.046 0.448,-1.549 1.315,-2.785 2.604,-3.707 1.289,-0.923 2.882,-1.384 4.783,-1.384 1.302,0 2.597,0.257 3.885,0.775 1.289,0.519 2.448,1.263 3.48,2.237 0.76,0.719 1.536,1.686 2.324,2.904 0.599,0.907 0.993,1.602 1.183,2.087 0.19,0.484 0.313,1.194 0.368,2.132 0.135,2.752 0.202,5.489 0.202,8.211 v 3.941 c 0,0.812 -0.04,2.861 -0.121,6.146 -0.056,2.065 -0.178,3.409 -0.368,4.035 -0.107,0.313 -0.284,0.565 -0.529,0.75 -0.406,0.313 -1.125,0.471 -2.157,0.471 -1.492,0 -2.672,0.013 -3.542,0.047 v 2.674 c 5.819,0.75 10.041,1.955 12.666,3.611 0.434,0.282 0.771,0.424 1.016,0.424 0.189,0 0.345,-0.079 0.466,-0.234 0.122,-0.158 0.182,-0.393 0.182,-0.705 0,-0.25 -0.011,-0.563 -0.036,-0.939 -0.074,-1.001 -0.162,-2.988 -0.261,-5.958 -0.155,-5.099 -0.232,-8.539 -0.232,-10.322 V 17.971 L -6.636,11.45 C -6.534,7.662 -6.468,5.443 -6.432,4.786 -6.405,3.222 -6.256,2.081 -5.987,1.361 -5.852,1.079 -5.677,0.836 -5.462,0.634 -5.245,0.432 -4.922,0.266 -4.49,0.141 -4.329,0.11 -2.831,0.063 0,0"
               id="path26"
               inkscape:connector-curvature="0"
               style="fill:#231f20;fill-rule:nonzero" /></g><g
             transform="translate(99.6289,125.438)"
             id="g28"><path
               d="m 0,0 0,2.212 c 2.933,1.334 5.265,2.529 6.994,3.585 v 16.018 c 3.171,1.265 5.746,2.616 7.729,4.056 l 1.097,-1.053 c -0.336,-2.917 -0.703,-9.345 -1.097,-19.286 2.438,-0.033 3.901,-0.053 4.389,-0.053 0.274,0 1.843,0.036 4.709,0.106 1.584,0.035 2.774,0.106 3.567,0.212 l 0.32,-0.369 -0.961,-4.902 c -1.919,0.036 -3.687,0.053 -5.303,0.053 -1.618,0 -3.858,-0.017 -6.721,-0.053 l -0.229,-21.445 c -0.092,-5.235 -0.061,-8.361 0.091,-9.379 0.152,-1.019 0.439,-1.907 0.865,-2.662 0.426,-0.756 0.98,-1.363 1.663,-1.817 0.684,-0.456 1.844,-0.809 3.486,-1.055 1.244,0 2.255,0.062 3.029,0.186 0.776,0.122 1.755,0.43 2.937,0.921 l 0.548,-2.055 c -1.43,-1.3 -2.815,-2.653 -4.157,-4.056 -1.156,-0.494 -2.237,-0.817 -3.241,-0.975 -1.006,-0.159 -2.161,-0.238 -3.47,-0.238 -1.615,0 -2.901,0.211 -3.859,0.632 -0.959,0.421 -1.834,1.009 -2.626,1.765 -0.791,0.756 -1.449,1.714 -1.974,2.872 -0.525,1.159 -0.865,2.987 -1.019,5.481 0.031,2.387 0.09,5.005 0.183,7.851 0.031,0.562 0.044,1.176 0.044,1.844 V 0.263 H 5.119 C 3.596,0.263 1.89,0.175 0,0"
               id="path30"
               inkscape:connector-curvature="0"
               style="fill:#231f20;fill-rule:nonzero" /></g><g
             transform="translate(65.1123,148.7065)"
             id="g32"><path
               d="M 0,0 C 0,0.419 -0.04,0.754 -0.118,1.001 -0.196,1.25 -0.306,1.431 -0.449,1.552 -0.591,1.671 -0.77,1.75 -0.985,1.789 -1.201,1.825 -1.439,1.843 -1.698,1.843 V 2.294 H 1.737 V 0 -10.391 c 0,-0.314 0.013,-0.565 0.039,-0.75 0.024,-0.187 0.086,-0.331 0.177,-0.431 0.09,-0.097 0.223,-0.157 0.399,-0.191 0.176,-0.029 0.412,-0.044 0.711,-0.044 h 1.309 c 0.416,0 0.756,0.044 1.024,0.136 0.267,0.089 0.484,0.231 0.651,0.415 0.172,0.187 0.304,0.432 0.402,0.732 0.1,0.297 0.186,0.659 0.264,1.078 L 6.87,-8.501 H 7.123 L 6.966,-12.686 H 0 V 0 z"
               id="path34"
               inkscape:connector-curvature="0"
               style="fill:#231f20;fill-rule:nonzero" /></g><g
             transform="translate(75.6904,148.6616)"
             id="g36"><path
               d="m 0,0 c -0.314,0 -0.579,0.123 -0.794,0.372 -0.213,0.248 -0.321,0.548 -0.321,0.909 0,0.36 0.108,0.664 0.321,0.91 0.215,0.248 0.48,0.373 0.794,0.373 0.311,0 0.573,-0.125 0.789,-0.373 C 1.004,1.945 1.11,1.641 1.11,1.281 1.11,0.92 1.004,0.62 0.789,0.372 0.573,0.123 0.311,0 0,0 m -0.703,-4.002 c 0,0.343 -0.049,0.588 -0.148,0.731 -0.1,0.141 -0.22,0.232 -0.369,0.27 -0.153,0.034 -0.315,0.043 -0.488,0.02 -0.179,-0.02 -0.336,-0.025 -0.478,-0.011 v 0.382 l 3.004,0.54 v -10.571 h -1.521 v 8.639 z"
               id="path38"
               inkscape:connector-curvature="0"
               style="fill:#231f20;fill-rule:nonzero" /></g><g
             transform="translate(80.2158,149.7163)"
             id="g40"><path
               d="m 0,0 c 0,0.332 -0.049,0.566 -0.147,0.709 -0.098,0.145 -0.22,0.233 -0.37,0.272 -0.15,0.037 -0.312,0.048 -0.49,0.033 -0.174,-0.015 -0.333,-0.015 -0.478,0 v 0.382 l 3.006,0.54 V -13.696 H 0 V 0 z"
               id="path42"
               inkscape:connector-curvature="0"
               style="fill:#231f20;fill-rule:nonzero" /></g><g
             transform="translate(85.6406,149.7163)"
             id="g44"><path
               d="m 0,0 c 0,0.332 -0.049,0.566 -0.147,0.709 -0.096,0.145 -0.221,0.233 -0.37,0.272 -0.15,0.037 -0.311,0.048 -0.488,0.033 -0.176,-0.015 -0.335,-0.015 -0.477,0 v 0.382 l 3.004,0.54 V -13.696 H 0 V 0 z"
               id="path46"
               inkscape:connector-curvature="0"
               style="fill:#231f20;fill-rule:nonzero" /></g><g
             transform="translate(95.5942,143.106)"
             id="g48"><path
               d="M 0,0 C 0,0.301 -0.03,0.623 -0.079,0.966 -0.135,1.315 -0.226,1.634 -0.36,1.934 -0.498,2.234 -0.689,2.48 -0.929,2.679 -1.172,2.871 -1.478,2.971 -1.855,2.971 -2.22,2.971 -2.534,2.854 -2.801,2.621 -3.066,2.389 -3.286,2.115 -3.455,1.798 -3.625,1.487 -3.75,1.159 -3.828,0.82 -3.906,0.485 -3.943,0.21 -3.943,0 H 0 z M 1.484,-6.904 C 1.247,-7.007 0.948,-7.101 0.595,-7.185 c -0.36,-0.082 -0.84,-0.124 -1.436,-0.124 -1.519,0 -2.69,0.473 -3.501,1.418 -0.816,0.944 -1.221,2.37 -1.221,4.273 0,1.649 0.312,2.912 0.927,3.786 0.617,0.879 1.629,1.318 3.033,1.318 0.446,0 0.865,-0.072 1.27,-0.214 C 0.071,3.131 0.423,2.904 0.732,2.597 1.036,2.29 1.278,1.903 1.46,1.441 1.644,0.978 1.734,0.413 1.734,-0.248 V -0.74 h -5.677 c 0,-1.44 0.059,-2.546 0.174,-3.32 0.118,-0.772 0.328,-1.336 0.635,-1.695 0.306,-0.362 0.72,-0.571 1.238,-0.633 0.521,-0.058 1.192,-0.089 2.011,-0.089 0.218,0 0.458,0.02 0.703,0.055 0.245,0.038 0.468,0.119 0.666,0.239 v -0.721 z"
               id="path50"
               inkscape:connector-curvature="0"
               style="fill:#231f20;fill-rule:nonzero" /></g><g
             transform="translate(104.6699,108.8555)"
             id="g52"><path
               d="M 0,0 C 6.306,-0.202 49.522,-10.844 65.369,28.534 63.766,31.228 53.979,-1.713 0,0"
               id="path54"
               inkscape:connector-curvature="0"
               style="fill:#35b3eb;fill-rule:nonzero" /></g><g
             transform="translate(126.9561,158.0474)"
             id="g56"><path
               d="m 0,0 c 0,0 32.182,-22.813 4.188,-80.754 0,0 36.915,51.647 -4.188,80.754"
               id="path58"
               inkscape:connector-curvature="0"
               style="fill:#35b3eb;fill-rule:nonzero" /></g><g
             transform="translate(128.4404,157.4771)"
             id="g60"><path
               d="M 0,0 C 0,0 44.41,-27.18 22.414,-79.525 22.414,-79.525 51.551,-27.51 0,0"
               id="path62"
               inkscape:connector-curvature="0"
               style="fill:#35b3eb;fill-rule:nonzero" /></g></g></g><g
         id="g64"><g
           id="g66"><g
             id="g72"><g
               id="g74"><path
                 d="m 34.191,145.34 c 0,-7.164 5.353,-12.97 11.957,-12.97 6.604,0 11.957,5.806 11.957,12.97 0,7.164 -5.353,12.971 -11.957,12.971 -6.604,0 -11.957,-5.807 -11.957,-12.971"
                 id="path82"
                 style="fill:url(#radialGradient3049)"
                 inkscape:connector-curvature="0" /></g></g></g></g></g></g></svg>